Coordinates
version=1
nRows=24
nColumns=22
inDegrees=yes

Units are S.I. units (second, meters, Newtons, ...)
If the header above contains a line with 'inDegrees', this indicates whether rotational values are in degrees (yes) or radians (no).

endheader
time	pelvis_tilt	pelvis_list	pelvis_rotation	pelvis_tx	pelvis_ty	pelvis_tz	hip_flexion_r	hip_adduction_r	hip_rotation_r	knee_angle_r	ankle_angle_r	subtalar_angle_r	hip_flexion_l	hip_adduction_l	hip_rotation_l	knee_angle_l	ankle_angle_l	subtalar_angle_l	lumbar_extension	lumbar_bending	lumbar_rotation
      0.01000000	      6.84762492	     -2.83709442	      3.91361755	      0.17622473	      0.95629582	      1.20429258	     -5.11310506	      4.44750287	    -12.76115689	    -10.87540327	      9.92683375	      1.29895669	     -3.75744822	     -3.54386834	     -9.35519492	    -15.91085142	     20.52645246	     -8.48020626	    -12.65380076	      4.11870185	     -8.91108109
      0.02000000	      6.84147526	     -2.83654627	      3.89700276	      0.17648605	      0.95626241	      1.20446851	     -5.12056296	      4.45619752	    -12.76239194	    -10.88026534	      9.93032252	      1.29915030	     -3.77001689	     -3.55133707	     -9.35155035	    -15.91811008	     20.52413724	     -8.48079055	    -12.64544253	      4.11612467	     -8.91599486
      0.03000000	      6.84177559	     -2.85573870	      3.87020142	      0.17677421	      0.95623698	      1.20469276	     -5.12968311	      4.48785703	    -12.73701525	    -10.89665059	      9.97207536	      1.29744282	     -3.80900441	     -3.58105663	     -9.36637548	    -15.88827286	     20.52278062	     -8.48619316	    -12.65059910	      4.14267698	     -8.91882703
      0.04000000	      6.85367807	     -2.85276393	      3.83969066	      0.17703416	      0.95622802	      1.20497031	     -5.15108776	      4.50110963	    -12.68385217	    -10.91182613	     10.01751332	      1.28691059	     -3.84396439	     -3.59126936	     -9.37601896	    -15.89236920	     20.54533145	     -8.49029845	    -12.68673884	      4.13490683	     -8.88579117
      0.05000000	      6.84162053	     -2.84625364	      3.82971430	      0.17732410	      0.95619061	      1.20524882	     -5.15321833	      4.51201331	    -12.68352184	    -10.91578714	     10.01947461	      1.28584405	     -3.85057917	     -3.60035736	     -9.37451240	    -15.89402404	     20.54601021	     -8.49077405	    -12.69220178	      4.12575950	     -8.88954567
      0.06000000	      6.83821957	     -2.84227567	      3.81745632	      0.17758298	      0.95615634	      1.20555384	     -5.14620602	      4.52538881	    -12.65127536	    -10.95472976	     10.04718048	      1.27436863	     -3.86088852	     -3.61437472	     -9.36930797	    -15.90181777	     20.56179705	     -8.49141541	    -12.72022554	      4.12239014	     -8.89239380
      0.07000000	      6.82493952	     -2.83428432	      3.80797234	      0.17789751	      0.95611219	      1.20588376	     -5.14666938	      4.53799930	    -12.65022629	    -10.96015009	     10.05241700	      1.27250361	     -3.86369269	     -3.62594234	     -9.36468490	    -15.90803485	     20.56473479	     -8.49125500	    -12.72948877	      4.10951102	     -8.89411306
      0.08000000	      6.80312304	     -2.83611190	      3.79701569	      0.17817792	      0.95601468	      1.20623107	     -5.11358491	      4.55867703	    -12.61473221	    -11.01209096	     10.17186207	      1.22020448	     -3.82475499	     -3.65499134	     -9.37184772	    -15.97589726	     20.64601723	     -8.47918256	    -12.73754655	      4.10994629	     -8.88472581
      0.09000000	      6.79291661	     -2.83167718	      3.78768491	      0.17849265	      0.95595037	      1.20658047	     -5.09898907	      4.57388225	    -12.59609551	    -11.05634776	     10.18736049	      1.20077301	     -3.80747485	     -3.67490848	     -9.35377529	    -16.02842406	     20.66248515	     -8.47173951	    -12.75805830	      4.10523946	     -8.89462040
      0.10000000	      6.74883259	     -2.85017555	      3.78134013	      0.17885626	      0.95580021	      1.20695109	     -5.04756379	      4.61439925	    -12.58814626	    -11.10242067	     10.28205832	      1.13195497	     -3.73052301	     -3.72894730	     -9.37772645	    -16.13097852	     20.75858121	     -8.43892094	    -12.72861589	      4.12366582	     -8.90475388
      0.11000000	      6.74422568	     -2.84677625	      3.76442191	      0.17921407	      0.95573578	      1.20731285	     -5.03373859	      4.63063727	    -12.55680355	    -11.16207521	     10.29351793	      1.11691004	     -3.71796483	     -3.74895567	     -9.35252559	    -16.19468029	     20.77323954	     -8.43017349	    -12.75657805	      4.12244916	     -8.91881416
      0.12000000	      6.70158798	     -2.87293902	      3.74719824	      0.17957449	      0.95557617	      1.20770102	     -4.97173495	      4.67871196	    -12.52256564	    -11.22985864	     10.40376664	      1.05053552	     -3.62490699	     -3.81283126	     -9.38353489	    -16.33500886	     20.88543021	     -8.39902996	    -12.74000969	      4.15321145	     -8.92456273
      0.13000000	      6.69939181	     -2.86895095	      3.72603147	      0.17992065	      0.95551626	      1.20807163	     -4.94763481	      4.69389066	    -12.47554181	    -11.31221775	     10.41218400	      1.03420916	     -3.60716639	     -3.83044046	     -9.34756475	    -16.41247279	     20.89800215	     -8.39243108	    -12.78484440	      4.15583258	     -8.94533032
      0.14000000	      6.64640614	     -2.89472868	      3.70370785	      0.18026713	      0.95533987	      1.20849255	     -4.85950373	      4.74229121	    -12.42251570	    -11.40615068	     10.53822877	      0.95865094	     -3.49158430	     -3.89316497	     -9.37150661	    -16.57227498	     21.01025540	     -8.38246680	    -12.77227933	      4.18412196	     -8.94563879
      0.15000000	      6.64405995	     -2.88973756	      3.68075846	      0.18066168	      0.95527669	      1.20888187	     -4.83195009	      4.75686191	    -12.37110729	    -11.50146988	     10.54575988	      0.94039746	     -3.47561162	     -3.90844645	     -9.33052038	    -16.65218329	     21.02121818	     -8.38152354	    -12.82170783	      4.18843804	     -8.96959107
      0.16000000	      6.59194357	     -2.91049149	      3.65267671	      0.18109215	      0.95509588	      1.20932679	     -4.74292775	      4.79789377	    -12.32231351	    -11.61173384	     10.68157074	      0.85971355	     -3.37201508	     -3.96356747	     -9.34749230	    -16.80392263	     21.13000205	     -8.40146876	    -12.80877817	      4.21230208	     -8.96337333
      0.17000000	      6.55080362	     -2.91708532	      3.62480376	      0.18157155	      0.95494677	      1.20977254	     -4.66962522	      4.82362765	    -12.27985839	    -11.72379676	     10.74569785	      0.78121501	     -3.30125202	     -3.99672804	     -9.33315494	    -16.92042335	     21.19093799	     -8.42911925	    -12.80695631	      4.22142972	     -8.96793420
      0.18000000	      6.52857747	     -2.92528655	      3.59589682	      0.18211451	      0.95482308	      1.21023699	     -4.62820246	      4.85362128	    -12.24137981	    -11.82270345	     10.82054872	      0.73179512	     -3.26606905	     -4.03321689	     -9.32410117	    -17.01739704	     21.25322431	     -8.45249953	    -12.82364148	      4.23208103	     -8.97885591
      0.19000000	      6.52345379	     -2.92564243	      3.56771526	      0.18269341	      0.95473720	      1.21071485	     -4.61188309	      4.87698496	    -12.20002992	    -11.91614132	     10.84216680	      0.71978530	     -3.26858401	     -4.05922488	     -9.29800398	    -17.08109306	     21.27545556	     -8.45761744	    -12.86053245	      4.23304841	     -9.00430421
      0.20000000	      6.48316666	     -2.94773950	      3.51727165	      0.18330785	      0.95455877	      1.21124836	     -4.55166496	      4.91900400	    -12.15878954	    -12.02262446	     10.98548384	      0.67253727	     -3.21212337	     -4.11724781	     -9.34324299	    -17.19978516	     21.40699807	     -8.48464867	    -12.85343038	      4.25099503	     -8.98220410
      0.21000000	      6.44499181	     -2.96190368	      3.46462698	      0.18395264	      0.95439220	      1.21178982	     -4.49527647	      4.95229962	    -12.10125158	    -12.13363021	     11.06958290	      0.62861205	     -3.16745651	     -4.16443854	     -9.36842892	    -17.30471474	     21.49447052	     -8.49956916	    -12.84826843	      4.26077726	     -8.97226004
      0.22000000	      6.41808642	     -2.97665804	      3.40465666	      0.18465409	      0.95423362	      1.21235607	     -4.45602648	      4.98682675	    -12.04112243	    -12.24420491	     11.16400125	      0.59872833	     -3.14157937	     -4.21456573	     -9.40067644	    -17.40793621	     21.59041911	     -8.49790628	    -12.85555854	      4.26935583	     -8.96147544
      0.23000000	      6.39107578	     -2.99388424	      3.33517839	      0.18542430	      0.95406114	      1.21295132	     -4.41681030	      5.02425248	    -11.96701014	    -12.36479619	     11.27761695	      0.57084562	     -3.11472155	     -4.27097506	     -9.44673190	    -17.52638334	     21.70453697	     -8.48205200	    -12.85764908	      4.27920229	     -8.94340769
      0.24000000	      6.36889521	     -3.01278344	      3.26368313	      0.18626108	      0.95387968	      1.21358100	     -4.38454506	      5.06597001	    -11.88759660	    -12.49192636	     11.40635156	      0.54776871	     -3.08999981	     -4.33350852	     -9.48720261	    -17.66110869	     21.83267931	     -8.45334725	    -12.86170819	      4.28617494	     -8.91923877
